<svg xmlns="http://www.w3.org/2000/svg" viewBox="0 0 100 100" fill="none">
  <!-- Graduation cap -->
  <path d="M50 12L8 35L50 58L82 40V58C82 61.8 72 66 72 66C72 66 72 61.8 72 58L92 35L50 12Z" fill="#2563EB"/>
  <!-- Cap top curve -->
  <path d="M8 35L50 58L92 35" stroke="#1D4ED8" stroke-width="2" fill="none"/>
  <!-- Tassel -->
  <line x1="82" y1="35" x2="90" y2="50" stroke="#FBBF24" stroke-width="2.5" stroke-linecap="round"/>
  <circle cx="90" cy="52" r="3" fill="#FBBF24"/>
  <!-- Diploma / scroll hint -->
  <rect x="52" y="58" width="18" height="12" rx="2" fill="#F59E0B" transform="rotate(-8 52 58)"/>
  <line x1="54" y1="61" x2="68" y2="59" stroke="#D97706" stroke-width="0.8" transform="rotate(-8 52 58)"/>
  <line x1="54" y1="64" x2="67" y2="62" stroke="#D97706" stroke-width="0.8" transform="rotate(-8 52 58)"/>
  <line x1="54" y1="67" x2="66" y2="65" stroke="#D97706" stroke-width="0.8" transform="rotate(-8 52 58)"/>
</svg>
